<svg width="24" height="20" viewBox="0 0 6 5" fill="none" xmlns="http://www.w3.org/2000/svg">
<path d="M0.878671 1.08579C0.683409 0.89053 0.683409 0.573948 0.878671 0.378685C1.07393 0.183423 1.39052 0.183423 1.58578 0.378685L2.99998 1.79289L4.41419 0.378686C4.60945 0.183424 4.92603 0.183424 5.1213 0.378686C5.31656 0.573948 5.31656 0.890531 5.1213 1.08579L3.70709 2.5L5.12131 3.91422C5.31657 4.10948 5.31657 4.42606 5.12131 4.62133C4.92605 4.81659 4.60947 4.81659 4.4142 4.62133L2.99998 3.2071L1.58576 4.62133C1.3905 4.81659 1.07392 4.81659 0.878655 4.62133C0.683393 4.42606 0.683393 4.10948 0.878655 3.91422L2.29288 2.5L0.878671 1.08579Z" fill="white"/>
</svg>