<svg width="32px" height="32px" viewBox="0 0 195 122" fill="none" xmlns="http://www.w3.org/2000/svg">
<mask id="path-1-inside-1_147_7" fill="white">
<path fill-rule="evenodd" clip-rule="evenodd" d="M80.3726 24.3611C67.9403 45.6145 70.3667 73.5284 86.232 91.7764C101.842 109.768 126.956 112.582 145.514 98.4196C146.825 97.4222 148.088 96.3538 149.299 95.219C151.537 93.1212 153.597 90.7966 155.45 88.274C155.578 88.0999 155.705 87.9249 155.831 87.749C156.753 86.4594 157.621 85.1252 158.431 83.7508C159.331 82.2235 160.161 80.6467 160.916 79.0264C161.609 77.5401 162.239 76.0173 162.804 74.4626C166.367 64.6542 167.289 53.9171 165.459 43.544C163.657 33.2651 159.184 23.7912 152.588 16.2785C146.091 8.85364 137.724 3.76122 128.575 1.66349C119.461 -0.394937 109.997 0.667286 101.444 4.70829C92.81 8.79884 85.4733 15.6409 80.3726 24.3611Z"/>
<path fill-rule="evenodd" clip-rule="evenodd" d="M44.29 55.9986C44.29 61.7325 40.0859 66.3786 34.9 66.3786H9.86C4.67409 66.3786 0.470001 61.7325 0.470001 55.9986C0.470001 50.2661 4.67409 45.6186 9.86 45.6186H34.9C40.0859 45.6186 44.29 50.2661 44.29 55.9986ZM44.29 97.5186C44.29 103.253 40.0859 107.899 34.9 107.899H9.86C4.67409 107.899 0.470001 103.253 0.470001 97.5186C0.470001 91.7861 4.67409 87.1386 9.86 87.1386H34.9C40.0859 87.1386 44.29 91.7861 44.29 97.5186ZM56.81 14.4792C56.81 20.2118 52.6059 24.8592 47.42 24.8592V4.09917C52.6059 4.09917 56.81 8.7465 56.81 14.4792ZM9.86 4.09917V24.8592C4.67409 24.8592 0.470001 20.2118 0.470001 14.4792C0.470001 8.7465 4.67409 4.09917 9.86 4.09917Z"/>
<path d="M47.42 24.8592V4.09917H9.86V24.8592H47.42Z"/>
<path d="M161.334 79.3453C161.197 79.2343 161.057 79.128 160.916 79.0264C160.161 80.6467 159.331 82.2235 158.431 83.7508L161.334 79.3453Z"/>
<path d="M179.611 119.748C183.802 123.124 189.676 122.105 192.73 117.472C195.783 112.838 194.861 106.346 190.669 102.97L179.611 119.748Z"/>
<path d="M179.611 119.748L190.669 102.97L161.334 79.3453L158.431 83.7508C157.621 85.1252 156.753 86.4594 155.831 87.749C155.705 87.9249 155.578 88.0999 155.45 88.274C153.597 90.7966 151.537 93.1212 149.299 95.219C149.602 95.5402 149.928 95.8427 150.277 96.1236L179.611 119.748Z"/>
</mask>
<path fill-rule="evenodd" clip-rule="evenodd" d="M44.29 55.9986C44.29 61.7325 40.0859 66.3786 34.9 66.3786H9.86C4.67409 66.3786 0.470001 61.7325 0.470001 55.9986C0.470001 50.2661 4.67409 45.6186 9.86 45.6186H34.9C40.0859 45.6186 44.29 50.2661 44.29 55.9986ZM44.29 97.5186C44.29 103.253 40.0859 107.899 34.9 107.899H9.86C4.67409 107.899 0.470001 103.253 0.470001 97.5186C0.470001 91.7861 4.67409 87.1386 9.86 87.1386H34.9C40.0859 87.1386 44.29 91.7861 44.29 97.5186ZM56.81 14.4792C56.81 20.2118 52.6059 24.8592 47.42 24.8592V4.09917C52.6059 4.09917 56.81 8.7465 56.81 14.4792ZM9.86 4.09917V24.8592C4.67409 24.8592 0.470001 20.2118 0.470001 14.4792C0.470001 8.7465 4.67409 4.09917 9.86 4.09917Z" fill="white"/>
<path d="M47.42 24.8592V4.09917H9.86V24.8592H47.42Z" fill="white"/>
<path d="M161.334 79.3453C161.197 79.2343 161.057 79.128 160.916 79.0264C160.161 80.6467 159.331 82.2235 158.431 83.7508L161.334 79.3453Z" fill="white"/>
<path d="M179.611 119.748C183.802 123.124 189.676 122.105 192.73 117.472C195.783 112.838 194.861 106.346 190.669 102.97L179.611 119.748Z" fill="white"/>
<path d="M179.611 119.748L190.669 102.97L161.334 79.3453L158.431 83.7508C157.621 85.1252 156.753 86.4594 155.831 87.749C155.705 87.9249 155.578 88.0999 155.45 88.274C153.597 90.7966 151.537 93.1212 149.299 95.219C149.602 95.5402 149.928 95.8427 150.277 96.1236L179.611 119.748Z" fill="white"/>
<path d="M155.831 87.749L163.963 93.5682L163.964 93.5676L155.831 87.749ZM161.334 79.3453L169.684 84.8482L153.366 73.3035L161.334 79.3453ZM149.299 95.219L141.33 89.1772L156.137 102.515L149.299 95.219ZM155.45 88.274L163.509 94.1943L163.509 94.1941L155.45 88.274ZM160.916 79.0264L169.98 83.2509L173.479 75.7424L166.753 70.9069L160.916 79.0264ZM182.319 97.4673L171.261 114.246L187.961 125.251L199.019 108.473L182.319 97.4673ZM24.9 45.6186V66.3786H44.9V45.6186H24.9ZM19.86 66.3786V45.6186H-0.139999V66.3786H19.86ZM24.9 87.1386V107.899H44.9V87.1386H24.9ZM19.86 107.899V87.1386H-0.139999V107.899H19.86ZM37.42 4.09917V24.8592H57.42V4.09917H37.42ZM19.86 24.8592V4.09917H-0.139999V24.8592H19.86ZM149.816 78.6727C149.154 79.7956 148.447 80.8826 147.698 81.9303L163.964 93.5676C165.059 92.0362 166.087 90.4547 167.046 88.8288L149.816 78.6727ZM147.698 81.9298C147.596 82.072 147.494 82.2133 147.391 82.3539L163.509 94.1941C163.662 93.9866 163.813 93.7779 163.963 93.5682L147.698 81.9298ZM152.985 73.8424L150.081 78.2479L166.781 89.2537L169.684 84.8482L152.985 73.8424ZM156.137 102.515C158.831 99.9904 161.298 97.2038 163.509 94.1943L147.391 82.3537C145.895 84.3894 144.243 86.252 142.46 87.9226L156.137 102.515ZM163.8 93.7769L166.781 89.2537L150.081 78.2479L147.1 82.7711L163.8 93.7769ZM151.852 74.802C151.232 76.133 150.552 77.4249 149.816 78.6727L167.046 88.8289C168.111 87.0222 169.09 85.1604 169.98 83.2509L151.852 74.802ZM166.753 70.9069C166.471 70.7039 166.184 70.509 165.892 70.3223L155.108 87.1659C155.097 87.1585 155.087 87.1518 155.079 87.146L166.753 70.9069ZM157.267 101.261L169.303 85.3871L153.366 73.3035L141.33 89.1772L157.267 101.261ZM80.3726 24.3611L97.636 34.4594L97.6362 34.459L80.3726 24.3611ZM86.232 91.7764L101.339 78.6697C101.334 78.6645 101.33 78.6593 101.325 78.654L86.232 91.7764ZM145.514 98.4196L133.403 82.5037C133.396 82.5093 133.388 82.5148 133.381 82.5204L145.514 98.4196ZM162.804 74.4626L181.6 81.2982L181.602 81.2915L162.804 74.4626ZM165.459 43.544L145.759 46.9969C145.76 47.0044 145.762 47.012 145.763 47.0195L165.459 43.544ZM152.588 16.2785L137.536 29.4484C137.544 29.4568 137.551 29.4652 137.558 29.4735L152.588 16.2785ZM128.575 1.66349L133.044 -17.8307C133.023 -17.8355 133.002 -17.8403 132.981 -17.8451L128.575 1.66349ZM101.444 4.70829L92.9006 -13.3752C92.8939 -13.3721 92.8873 -13.3689 92.8806 -13.3658L101.444 4.70829ZM161.334 79.3453L148.785 94.918L148.79 94.9218L161.334 79.3453ZM150.277 96.1236L162.822 80.547L162.821 80.5465L150.277 96.1236ZM179.611 119.748L192.158 104.173L192.156 104.172L179.611 119.748ZM190.669 102.97L178.124 118.547L178.125 118.547L190.669 102.97ZM149.299 95.219L163.844 81.4918L150.164 66.9971L135.622 80.6262L149.299 95.219ZM160.916 79.0264L142.788 70.5775L135.789 85.5946L149.242 95.2657L160.916 79.0264ZM63.1093 14.2627C46.4536 42.7361 49.5059 80.0169 71.1389 104.899L101.325 78.654C91.2274 67.0398 89.427 48.4929 97.636 34.4594L63.1093 14.2627ZM71.1252 104.883C93.4274 130.589 130.423 135.095 157.647 114.319L133.381 82.5204C123.489 90.0692 110.257 88.9483 101.339 78.6697L71.1252 104.883ZM181.602 81.2915C186.375 68.1536 187.588 53.8612 185.154 40.0685L145.763 47.0195C146.99 53.973 146.36 61.1547 144.006 67.6336L181.602 81.2915ZM185.158 40.0912C182.752 26.3615 176.741 13.4759 167.618 3.08354L137.558 29.4735C141.626 34.1064 144.562 40.1686 145.759 46.9969L185.158 40.0912ZM167.64 3.1086C158.52 -7.31394 146.516 -14.7419 133.044 -17.8307L124.105 21.1577C128.932 22.2643 133.663 25.0212 137.536 29.4484L167.64 3.1086ZM132.981 -17.8451C119.454 -20.9004 105.436 -19.2971 92.9006 -13.3752L109.987 22.7918C114.559 20.6317 119.469 20.1106 124.168 21.172L132.981 -17.8451ZM92.8806 -13.3658C80.3971 -7.45127 70.1189 2.27899 63.109 14.2632L97.6362 34.459C100.828 29.0029 105.223 25.049 110.007 22.7824L92.8806 -13.3658ZM167.065 135.324C180.958 146.515 200.252 142.402 209.429 128.477L176.03 106.466C177.439 104.328 179.937 102.47 183.178 101.908C186.461 101.338 189.764 102.245 192.158 104.173L167.065 135.324ZM209.429 128.477C217.878 115.658 215.821 97.5463 203.213 87.3932L178.125 118.547C175.855 116.719 174.877 114.404 174.615 112.563C174.353 110.717 174.678 108.517 176.03 106.466L209.429 128.477ZM34.9 86.3786C52.9691 86.3786 64.29 70.8465 64.29 55.9986H24.29C24.29 52.6185 27.2028 46.3786 34.9 46.3786V86.3786ZM64.29 55.9986C64.29 41.1539 52.9707 25.6186 34.9 25.6186V65.6186C27.2011 65.6186 24.29 59.3783 24.29 55.9986H64.29ZM9.86 25.6186C-8.21068 25.6186 -19.53 41.1539 -19.53 55.9986H20.47C20.47 59.3783 17.5589 65.6186 9.86 65.6186V25.6186ZM-19.53 55.9986C-19.53 70.8465 -8.20906 86.3786 9.86 86.3786V46.3786C17.5572 46.3786 20.47 52.6185 20.47 55.9986H-19.53ZM34.9 127.899C52.969 127.899 64.29 112.367 64.29 97.5186H24.29C24.29 94.1385 27.2028 87.8986 34.9 87.8986V127.899ZM64.29 97.5186C64.29 82.6739 52.9707 67.1386 34.9 67.1386V107.139C27.2011 107.139 24.29 100.898 24.29 97.5186H64.29ZM9.86 67.1386C-8.2107 67.1386 -19.53 82.6739 -19.53 97.5186H20.47C20.47 100.898 17.5589 107.139 9.86 107.139V67.1386ZM-19.53 97.5186C-19.53 112.367 -8.20904 127.899 9.86 127.899V87.8986C17.5572 87.8986 20.47 94.1385 20.47 97.5186H-19.53ZM47.42 44.8592C65.4905 44.8592 76.81 29.3242 76.81 14.4792H36.81C36.81 11.0995 39.7213 4.85917 47.42 4.85917V44.8592ZM76.81 14.4792C76.81 -0.365882 65.4905 -15.9008 47.42 -15.9008V24.0992C39.7213 24.0992 36.81 17.8589 36.81 14.4792H76.81ZM9.86 -15.9008C-8.21053 -15.9008 -19.53 -0.365882 -19.53 14.4792H20.47C20.47 17.8589 17.5587 24.0992 9.86 24.0992V-15.9008ZM-19.53 14.4792C-19.53 29.3242 -8.21053 44.8592 9.86 44.8592V4.85917C17.5587 4.85917 20.47 11.0995 20.47 14.4792H-19.53ZM137.732 111.7L167.066 135.325L192.156 104.172L162.822 80.547L137.732 111.7ZM203.214 87.3937L173.879 63.7688L148.79 94.9218L178.124 118.547L203.214 87.3937ZM34.9 25.6186H9.86V65.6186H34.9V25.6186ZM9.86 86.3786H34.9V46.3786H9.86V86.3786ZM34.9 67.1386H9.86V107.139H34.9V67.1386ZM9.86 127.899H34.9V87.8986H9.86V127.899ZM47.42 -15.9008H9.86V24.0992H47.42V-15.9008ZM9.86 44.8592H47.42V4.85917H9.86V44.8592ZM134.754 108.946C135.671 109.918 136.664 110.84 137.733 111.701L162.821 80.5465C163.192 80.8452 163.533 81.1623 163.844 81.4918L134.754 108.946ZM157.626 114.336C159.486 112.92 161.271 111.409 162.975 109.812L135.622 80.6262C134.905 81.2986 134.164 81.9248 133.403 82.5037L157.626 114.336ZM173.884 63.7726C173.462 63.4328 173.031 63.1042 172.59 62.7872L149.242 95.2657C149.083 95.1518 148.931 95.0357 148.785 94.918L173.884 63.7726ZM179.044 87.4754C179.984 85.4585 180.837 83.3972 181.6 81.2982L144.009 67.6269C143.641 68.6374 143.233 69.6218 142.788 70.5775L179.044 87.4754Z" fill="white" mask="url(#path-1-inside-1_147_7)"/>
</svg>
