<svg width="22" height="24" viewBox="0 0 111 120" fill="none" xmlns="http://www.w3.org/2000/svg">
<path d="M43.7908 14.075C52.8897 4.23731 57.4394 -0.68156 62.6691 0.0760651C67.8988 0.83369 70.3459 6.76606 75.2388 18.6307L76.5045 21.7003C77.8955 25.0719 78.5906 26.7576 79.9435 27.9994C81.2964 29.2412 83.1535 29.8985 86.8678 31.2131L90.2486 32.4098C103.32 37.0356 109.855 39.3485 110.6 44.076C111.346 48.8034 105.807 52.8144 94.7306 60.8369L91.8651 62.9125C88.718 65.1925 87.1438 66.3319 86.2328 67.8925C85.3219 69.4525 85.1767 71.2569 84.8868 74.8644L84.6226 78.1494C83.6017 90.8456 83.0913 97.1944 78.3222 99.3581C73.5532 101.522 67.6837 98.0694 55.9447 91.1625L52.9076 89.3756C49.5717 87.4131 47.9041 86.4319 45.9882 86.1544C44.0723 85.8769 42.1259 86.3344 38.2321 87.25L34.6873 88.0831C20.9858 91.3044 14.1351 92.915 10.4422 89.525C6.74934 86.135 8.66007 79.9894 12.4815 67.6981L13.4701 64.5187C14.556 61.0256 15.099 59.2794 14.8259 57.5475C14.5529 55.8162 13.4948 54.295 11.3786 51.2525L9.45189 48.4829C2.00478 37.7771 -1.71874 32.4242 0.768151 28.1649C3.25497 23.9057 10.3053 23.5609 24.4059 22.8713L28.0539 22.6929C32.0609 22.4969 34.0644 22.3989 35.8114 21.6062C37.5585 20.8134 38.8512 19.4156 41.4369 16.6201L43.7908 14.075Z" fill="#FFB774"/>
<path d="M77.4902 55.0562C70.6662 47.6779 67.2535 43.9888 63.3311 44.5571C59.4093 45.1252 57.5744 49.5746 53.9044 58.4731L52.9547 60.775C51.9117 63.3037 51.3902 64.5681 50.3755 65.4994C49.3615 66.4312 47.9685 66.9237 45.1824 67.91L42.6468 68.8075C32.8436 72.2769 27.9422 74.0112 27.3832 77.5569C26.8242 81.1025 30.9778 84.1112 39.2851 90.1275L41.4343 91.6844C43.795 93.3944 44.9756 94.2494 45.6583 95.4194C46.3417 96.5894 46.4503 97.9425 46.6681 100.648L46.866 103.112C47.6316 112.634 48.0148 117.396 51.5914 119.019C55.1687 120.642 59.5705 118.052 68.3747 112.872L70.6524 111.532C73.1541 110.06 74.4054 109.324 75.842 109.116C77.2792 108.907 78.7393 109.251 81.6589 109.937L84.3176 110.562C94.5937 112.978 99.7321 114.186 102.502 111.644C105.271 109.101 103.839 104.492 100.972 95.2737L100.231 92.8887C99.416 90.2694 99.0093 88.9594 99.2141 87.6606C99.4188 86.3619 100.212 85.2212 101.8 82.9394L103.244 80.8625C108.83 72.8325 111.623 68.8181 109.757 65.6237C107.892 62.4294 102.605 62.1706 92.029 61.6537L89.2928 61.5194C86.2875 61.3725 84.7852 61.2994 83.4745 60.7044C82.1645 60.11 81.1948 59.0619 79.2553 56.965L77.4902 55.0562Z" fill="#FFE897"/>
</svg>
