<svg width="32px" height="32px" viewBox="0 0 41 52" fill="none" xmlns="http://www.w3.org/2000/svg">
<path d="M35.8399 42.9385C37.5813 42.8594 38.7046 42.4416 39.6236 41.531C40.3409 40.8204 40.425 40.5588 40.0326 40.2615C39.8256 40.1045 39.5417 40.1189 38.4826 40.3399C36.0145 40.8546 33.2566 40.4337 30.927 39.1867C30.4139 38.9119 29.2506 38.0104 28.342 37.1833C26.554 35.5556 25.2803 33.9198 23.3646 30.7916C22.0583 28.6582 21.689 28.235 21.1334 28.235C20.6367 28.235 20.4114 28.4794 19.5395 29.9645C16.9127 34.4389 15.7121 36.0651 13.8064 37.7307C11.3663 39.8634 9.38018 40.6972 6.44624 40.8208C5.02875 40.8805 4.58184 40.8354 3.23516 40.4966L3.09257 40.4607C1.36975 40.0271 0.92166 39.9143 0.805485 40.0615C0.764647 40.1133 0.764812 40.1971 0.76505 40.3105L0.765095 40.3375C0.765095 41.2524 3.26907 42.9078 5.23606 43.2931C6.61715 43.5635 9.34543 43.3854 10.7708 42.9317C14.3677 41.7868 8.54233 54.9753 11.3172 50.2312C11.7649 49.4659 21.3371 32.6178 21.4278 32.6454C21.5185 32.673 14.798 49.5087 15.2545 50.2312C17.6437 54.013 26.7833 41.6744 29.8961 42.9317C31.3936 43.5366 34.2611 43.0102 35.8399 42.9385Z" fill="white"/>
<path d="M35.8399 8.65911C37.5813 8.73915 38.7046 9.16183 39.6236 10.0831C40.3409 10.8021 40.425 11.0667 40.0326 11.3675C39.8256 11.5263 39.5417 11.5117 38.4826 11.2882C36.0145 10.7674 33.2566 11.1933 30.927 12.4549C30.4139 12.7329 29.2506 13.6449 28.342 14.4818C26.554 16.1285 25.2803 17.7835 23.3646 20.9484C22.0583 23.1068 21.689 23.535 21.1334 23.535C20.6367 23.535 20.4114 23.2877 19.5395 21.7852C16.9127 17.2583 15.7121 15.613 13.8064 13.9279C11.3663 11.7702 9.38018 10.9267 6.44624 10.8016C5.02875 10.7412 4.58184 10.7868 3.23516 11.1296L3.09257 11.166C1.36975 11.6046 0.92166 11.7187 0.805485 11.5698C0.764647 11.5174 0.764812 11.4326 0.76505 11.3179L0.765095 11.2906C0.765095 10.3649 3.26907 8.69015 5.23606 8.30033C6.61715 8.02676 9.34543 8.20691 10.7708 8.66596C14.3677 9.82431 8.54233 -3.51886 11.3172 1.28086C11.7649 2.05518 21.3371 19.1007 21.4278 19.0729C21.5185 19.0449 14.798 2.01181 15.2545 1.28086C17.6437 -2.54522 26.7833 9.93797 29.8961 8.66596C31.3936 8.05399 34.2611 8.58654 35.8399 8.65911Z" fill="white"/>
</svg>
