<svg width="16" height="16" viewBox="0 0 123 122" fill="none" xmlns="http://www.w3.org/2000/svg">
<mask id="path-1-inside-1_162_2" fill="white">
<path d="M13.7682 91.1364C-2.09713 72.8884 -4.52351 44.9745 7.90885 23.7211C13.0095 15.0009 20.3462 8.15882 28.98 4.06827C37.5337 0.0272717 46.9975 -1.03495 56.1109 1.02347C65.2605 3.1212 73.6276 8.21362 80.1242 15.6385C86.7197 23.1511 91.1931 32.625 92.9948 42.904C94.8252 53.2771 93.9037 64.0142 90.3405 73.8226C89.7751 75.3773 89.1448 76.9001 88.452 78.3864L118.205 102.33C122.397 105.706 123.319 112.198 120.266 116.832C117.212 121.465 111.338 122.484 107.147 119.108L76.835 94.579C75.6242 95.7138 74.3612 96.7822 73.0504 97.7796C54.492 111.942 29.3782 109.128 13.7682 91.1364Z"/>
</mask>
<path d="M7.90885 23.7211L25.1722 33.8194L25.1725 33.819L7.90885 23.7211ZM13.7682 91.1364L28.875 78.0297C28.8704 78.0245 28.8659 78.0192 28.8614 78.014L13.7682 91.1364ZM73.0504 97.7796L60.939 81.8637C60.9317 81.8693 60.9245 81.8748 60.9172 81.8804L73.0504 97.7796ZM90.3405 73.8226L109.136 80.6582L109.139 80.6515L90.3405 73.8226ZM92.9948 42.904L73.2951 46.3568C73.2964 46.3644 73.2977 46.3719 73.2991 46.3795L92.9948 42.904ZM80.1242 15.6385L65.0725 28.8084C65.0798 28.8168 65.0872 28.8251 65.0945 28.8335L80.1242 15.6385ZM56.1109 1.02347L60.5803 -18.4707C60.5593 -18.4756 60.5383 -18.4803 60.5172 -18.4851L56.1109 1.02347ZM28.98 4.06827L20.4368 -14.0153C20.4301 -14.0121 20.4235 -14.0089 20.4168 -14.0058L28.98 4.06827ZM107.147 119.108L94.5662 134.656L94.5836 134.67L94.6009 134.684L107.147 119.108ZM118.205 102.33L130.749 86.7532L130.744 86.749L118.205 102.33ZM76.835 94.579L89.4161 79.0318L75.8715 68.0713L63.1584 79.9862L76.835 94.579ZM88.452 78.3864L70.3243 69.9375L63.7038 84.1422L75.9131 93.9676L88.452 78.3864ZM-9.3545 13.6227C-26.0102 42.0961 -22.9579 79.3769 -1.32492 104.259L28.8614 78.014C18.7637 66.3998 16.9632 47.8529 25.1722 33.8194L-9.3545 13.6227ZM-1.33855 104.243C20.9636 129.949 57.9588 134.455 85.1836 113.679L60.9172 81.8804C51.0253 89.4292 37.7927 88.3083 28.875 78.0297L-1.33855 104.243ZM109.139 80.6515C113.911 67.5136 115.124 53.2212 112.69 39.4285L73.2991 46.3795C74.5261 53.333 73.8962 60.5147 71.5425 66.9936L109.139 80.6515ZM112.694 39.4512C110.288 25.7215 104.278 12.8359 95.1539 2.44352L65.0945 28.8335C69.1619 33.4664 72.0983 39.5286 73.2951 46.3568L112.694 39.4512ZM95.1759 2.46858C86.0564 -7.95395 74.0527 -15.3819 60.5803 -18.4707L51.6414 20.5177C56.4682 21.6243 61.1988 24.3812 65.0725 28.8084L95.1759 2.46858ZM60.5172 -18.4851C46.9901 -21.5405 32.9718 -19.9371 20.4368 -14.0153L37.5232 22.1518C42.0956 19.9917 47.005 19.4705 51.7045 20.532L60.5172 -18.4851ZM20.4168 -14.0058C7.93327 -8.09129 -2.3449 1.63898 -9.35475 13.6232L25.1725 33.819C28.3639 28.3628 32.7592 24.4089 37.5432 22.1423L20.4168 -14.0058ZM94.6009 134.684C108.494 145.875 127.789 141.762 136.966 127.837L103.566 105.826C104.976 103.688 107.473 101.83 110.714 101.268C113.997 100.698 117.3 101.605 119.694 103.533L94.6009 134.684ZM136.966 127.837C145.414 115.018 143.357 96.9063 130.749 86.7532L105.661 117.907C103.391 116.079 102.413 113.764 102.151 111.923C101.889 110.077 102.215 107.877 103.566 105.826L136.966 127.837ZM85.1618 113.695C87.0224 112.28 88.8074 110.769 90.5116 109.172L63.1584 79.9862C62.441 80.6586 61.6999 81.2847 60.939 81.8637L85.1618 113.695ZM106.58 86.8353C107.52 84.8185 108.373 82.7572 109.136 80.6582L71.5449 66.9869C71.1775 67.9973 70.7697 68.9818 70.3243 69.9375L106.58 86.8353ZM64.2539 110.126L94.5662 134.656L119.728 103.561L89.4161 79.0318L64.2539 110.126ZM75.9131 93.9676L105.666 117.911L130.744 86.749L100.991 62.8052L75.9131 93.9676Z" fill="#ffffff" mask="url(#path-1-inside-1_162_2)"/>
</svg>
